<svg width="72" height="72" viewBox="0 0 72 72" fill="none" xmlns="http://www.w3.org/2000/svg">
<g clip-path="url(#clip0_9308_28157)">
<path d="M62.6128 18.4713C62.0175 18.1796 61.7611 18.7355 61.413 19.0179C61.2939 19.109 61.1932 19.2274 61.0924 19.3367C60.2223 20.2659 59.2057 20.8765 57.8776 20.8035C55.9359 20.6941 54.2781 21.3047 52.8126 22.7898C52.5012 20.9585 51.4663 19.865 49.8909 19.1636C49.0667 18.7991 48.2332 18.4346 47.6561 17.6419C47.2531 17.0772 47.1432 16.4485 46.9417 15.8289C46.8134 15.4554 46.6852 15.0726 46.2547 15.0088C45.7876 14.936 45.6044 15.3276 45.4212 15.6558C44.6885 16.9952 44.4046 18.4712 44.432 19.9654C44.4961 23.3275 45.9158 26.006 48.7367 27.9103C49.0573 28.129 49.1397 28.3475 49.039 28.6666C48.8466 29.3226 48.6176 29.9603 48.4162 30.6163C48.2879 31.0355 48.0955 31.1266 47.6468 30.9442C46.0989 30.2975 44.7616 29.3407 43.5801 28.1837C41.5743 26.243 39.7608 24.1019 37.4986 22.4254C36.9674 22.0336 36.4361 21.6693 35.8865 21.3229C33.5784 19.0817 36.1888 17.2411 36.7933 17.0226C37.4252 16.7948 37.0131 16.0111 34.9706 16.0204C32.9281 16.0294 31.0597 16.7128 28.6784 17.6239C28.3304 17.7606 27.9639 17.8607 27.5884 17.9427C25.4269 17.5328 23.1829 17.4415 20.8382 17.7059C16.4235 18.1978 12.8974 20.2843 10.3054 23.8468C7.1914 28.129 6.4587 32.9942 7.3563 38.0692C8.2997 43.4173 11.029 47.8453 15.2239 51.3077C19.5745 54.8973 24.5845 56.6558 30.2997 56.3187C33.771 56.1183 37.6361 55.6537 41.9958 51.9637C43.0948 52.5104 44.2489 52.7289 46.1632 52.8929C47.6378 53.0296 49.0575 52.8201 50.1565 52.5924C51.8784 52.2279 51.7594 50.6334 51.1366 50.3419C46.09 47.9913 47.1981 48.9479 46.1907 48.1734C48.7552 45.1395 52.6204 41.9869 54.1316 31.7733C54.2506 30.9625 54.1499 30.4522 54.1316 29.7962C54.1224 29.3954 54.214 29.2406 54.672 29.1949C55.9359 29.0491 57.1632 28.703 58.2898 28.0834C61.5596 26.2977 62.8784 23.3639 63.1898 19.847C63.2357 19.3094 63.1807 18.7535 62.6128 18.4713ZM34.119 50.1231C29.2281 46.2784 26.856 45.0118 25.8759 45.0665C24.96 45.1212 25.1249 46.169 25.3263 46.8524C25.537 47.5265 25.8118 47.9913 26.1964 48.5834C26.462 48.9752 26.6453 49.5582 25.9309 49.9957C24.3555 50.9706 21.6169 49.6676 21.4886 49.6039C18.3014 47.7269 15.6361 45.2486 13.7584 41.8595C11.9449 38.5975 10.8917 35.099 10.7176 31.3634C10.6718 30.4615 10.9374 30.1424 11.835 29.9786C13.0165 29.7599 14.2347 29.7142 15.4162 29.8873C20.408 30.6163 24.6577 32.8485 28.2205 36.3836C30.2538 38.3971 31.7925 40.8026 33.3771 43.1532C35.0623 45.6495 36.8758 48.0277 39.1839 49.9774C39.999 50.6607 40.6493 51.18 41.2721 51.5628C39.3946 51.7723 36.2622 51.818 34.119 50.1231ZM36.4637 35.0443C36.4637 34.6434 36.7843 34.3246 37.1874 34.3246C37.279 34.3246 37.3614 34.3426 37.4347 34.3699C37.5355 34.4065 37.6271 34.4612 37.7003 34.543C37.8286 34.6707 37.9018 34.8528 37.9018 35.0442C37.9018 35.4451 37.5813 35.7639 37.1784 35.7639C36.7755 35.7639 36.4637 35.4452 36.4637 35.0443ZM43.7452 38.7799C43.2781 38.9713 42.811 39.1351 42.3622 39.1534C41.6661 39.1898 40.9059 38.9073 40.4938 38.5611C39.8527 38.0235 39.3947 37.723 39.2024 36.7845C39.1199 36.3836 39.1657 35.764 39.2391 35.4088C39.4039 34.6434 39.2207 34.1515 38.6804 33.7049C38.2407 33.3404 37.682 33.2403 37.0683 33.2403C36.8393 33.2403 36.6288 33.14 36.473 33.058C36.2165 32.9305 36.006 32.6116 36.2074 32.2198C36.2715 32.0924 36.583 31.7825 36.6563 31.7279C37.4898 31.254 38.4515 31.409 39.3399 31.7643C40.1643 32.1014 40.7871 32.721 41.6846 33.5956C42.6005 34.6524 42.7653 34.9442 43.2874 35.7367C43.6997 36.3563 44.0752 36.994 44.3316 37.723C44.4873 38.1786 44.2856 38.5521 43.7452 38.7799Z" fill="#4D6BFE"/>
</g>
<defs>
<clipPath id="clip0_9308_28157">
<rect width="57" height="41" fill="white" transform="translate(7 15)"/>
</clipPath>
</defs>
</svg>
